<svg xmlns="http://www.w3.org/2000/svg" width="710" height="710" viewBox="0 0 710 710">
  <g id="Group_11" data-name="Group 11" transform="translate(-2725 -1076)">
    <rect id="Rectangle_3" data-name="Rectangle 3" width="710" height="710" transform="translate(2725 1076)" fill="none"/>
    <g id="Group_10" data-name="Group 10" transform="translate(2511 819)">
      <g id="Group_6" data-name="Group 6" transform="translate(-2)">
        <g id="Group_2" data-name="Group 2" transform="translate(2 -8)">
          <rect id="Rectangle_5" data-name="Rectangle 5" width="16" height="16" transform="translate(240 305)" fill="#d6d6d6"/>
          <rect id="Rectangle_21" data-name="Rectangle 21" width="16" height="16" transform="translate(240 305)" fill="#d6d6d6"/>
          <rect id="Rectangle_6" data-name="Rectangle 6" width="16" height="16" transform="translate(283 305)" fill="#d6d6d6"/>
          <rect id="Rectangle_7" data-name="Rectangle 7" width="16" height="16" transform="translate(323 305)" fill="#d6d6d6"/>
          <rect id="Rectangle_8" data-name="Rectangle 8" width="16" height="16" transform="translate(366 305)" fill="#d6d6d6"/>
          <rect id="Rectangle_9" data-name="Rectangle 9" width="16" height="16" transform="translate(409 305)" fill="#d6d6d6"/>
          <rect id="Rectangle_10" data-name="Rectangle 10" width="16" height="16" transform="translate(452 305)" fill="#d6d6d6"/>
          <rect id="Rectangle_11" data-name="Rectangle 11" width="16" height="16" transform="translate(495 305)" fill="#d6d6d6"/>
          <rect id="Rectangle_12" data-name="Rectangle 12" width="16" height="16" transform="translate(538 305)" fill="#d6d6d6"/>
          <rect id="Rectangle_13" data-name="Rectangle 13" width="16" height="16" transform="translate(581 305)" fill="#d6d6d6"/>
          <rect id="Rectangle_14" data-name="Rectangle 14" width="16" height="16" transform="translate(624 305)" fill="#d6d6d6"/>
          <rect id="Rectangle_15" data-name="Rectangle 15" width="16" height="16" transform="translate(667 305)" fill="#d6d6d6"/>
          <rect id="Rectangle_16" data-name="Rectangle 16" width="16" height="16" transform="translate(710 305)" fill="#d6d6d6"/>
          <rect id="Rectangle_17" data-name="Rectangle 17" width="16" height="16" transform="translate(753 305)" fill="#d6d6d6"/>
          <rect id="Rectangle_18" data-name="Rectangle 18" width="16" height="16" transform="translate(796 305)" fill="#d6d6d6"/>
          <rect id="Rectangle_19" data-name="Rectangle 19" width="16" height="16" transform="translate(839 305)" fill="#d6d6d6"/>
          <rect id="Rectangle_20" data-name="Rectangle 20" width="16" height="16" transform="translate(882 305)" fill="#d6d6d6"/>
        </g>
        <g id="Group_3" data-name="Group 3" transform="translate(2 33)">
          <rect id="Rectangle_5-2" data-name="Rectangle 5" width="16" height="16" transform="translate(240 305)" fill="#d6d6d6"/>
          <rect id="Rectangle_21-2" data-name="Rectangle 21" width="16" height="16" transform="translate(240 305)" fill="#d6d6d6"/>
          <rect id="Rectangle_6-2" data-name="Rectangle 6" width="16" height="16" transform="translate(283 305)" fill="#d6d6d6"/>
          <rect id="Rectangle_7-2" data-name="Rectangle 7" width="16" height="16" transform="translate(323 305)" fill="#d6d6d6"/>
          <rect id="Rectangle_8-2" data-name="Rectangle 8" width="16" height="16" transform="translate(366 305)" fill="#d6d6d6"/>
          <rect id="Rectangle_9-2" data-name="Rectangle 9" width="16" height="16" transform="translate(409 305)" fill="#d6d6d6"/>
          <rect id="Rectangle_10-2" data-name="Rectangle 10" width="16" height="16" transform="translate(452 305)" fill="#d6d6d6"/>
          <rect id="Rectangle_11-2" data-name="Rectangle 11" width="16" height="16" transform="translate(495 305)" fill="#d6d6d6"/>
          <rect id="Rectangle_12-2" data-name="Rectangle 12" width="16" height="16" transform="translate(538 305)" fill="#d6d6d6"/>
          <rect id="Rectangle_13-2" data-name="Rectangle 13" width="16" height="16" transform="translate(581 305)" fill="#d6d6d6"/>
          <rect id="Rectangle_14-2" data-name="Rectangle 14" width="16" height="16" transform="translate(624 305)" fill="#d6d6d6"/>
          <rect id="Rectangle_15-2" data-name="Rectangle 15" width="16" height="16" transform="translate(667 305)" fill="#d6d6d6"/>
          <rect id="Rectangle_16-2" data-name="Rectangle 16" width="16" height="16" transform="translate(710 305)" fill="#d6d6d6"/>
          <rect id="Rectangle_17-2" data-name="Rectangle 17" width="16" height="16" transform="translate(753 305)" fill="#d6d6d6"/>
          <rect id="Rectangle_18-2" data-name="Rectangle 18" width="16" height="16" transform="translate(796 305)" fill="#d6d6d6"/>
          <rect id="Rectangle_19-2" data-name="Rectangle 19" width="16" height="16" transform="translate(839 305)" fill="#d6d6d6"/>
          <rect id="Rectangle_20-2" data-name="Rectangle 20" width="16" height="16" transform="translate(882 305)" fill="#d6d6d6"/>
        </g>
        <g id="Group_4" data-name="Group 4" transform="translate(2 74)">
          <rect id="Rectangle_5-3" data-name="Rectangle 5" width="16" height="16" transform="translate(240 305)" fill="#d6d6d6"/>
          <rect id="Rectangle_21-3" data-name="Rectangle 21" width="16" height="16" transform="translate(240 305)" fill="#d6d6d6"/>
          <rect id="Rectangle_6-3" data-name="Rectangle 6" width="16" height="16" transform="translate(283 305)" fill="#d6d6d6"/>
          <rect id="Rectangle_7-3" data-name="Rectangle 7" width="16" height="16" transform="translate(323 305)" fill="#d6d6d6"/>
          <rect id="Rectangle_8-3" data-name="Rectangle 8" width="16" height="16" transform="translate(366 305)" fill="#d6d6d6"/>
          <rect id="Rectangle_9-3" data-name="Rectangle 9" width="16" height="16" transform="translate(409 305)" fill="#d6d6d6"/>
          <rect id="Rectangle_10-3" data-name="Rectangle 10" width="16" height="16" transform="translate(452 305)" fill="#d6d6d6"/>
          <rect id="Rectangle_11-3" data-name="Rectangle 11" width="16" height="16" transform="translate(495 305)" fill="#d6d6d6"/>
          <rect id="Rectangle_12-3" data-name="Rectangle 12" width="16" height="16" transform="translate(538 305)" fill="#d6d6d6"/>
          <rect id="Rectangle_13-3" data-name="Rectangle 13" width="16" height="16" transform="translate(581 305)" fill="#d6d6d6"/>
          <rect id="Rectangle_14-3" data-name="Rectangle 14" width="16" height="16" transform="translate(624 305)" fill="#d6d6d6"/>
          <rect id="Rectangle_15-3" data-name="Rectangle 15" width="16" height="16" transform="translate(667 305)" fill="#d6d6d6"/>
          <rect id="Rectangle_16-3" data-name="Rectangle 16" width="16" height="16" transform="translate(710 305)" fill="#d6d6d6"/>
          <rect id="Rectangle_17-3" data-name="Rectangle 17" width="16" height="16" transform="translate(753 305)" fill="#d6d6d6"/>
          <rect id="Rectangle_18-3" data-name="Rectangle 18" width="16" height="16" transform="translate(796 305)" fill="#d6d6d6"/>
          <rect id="Rectangle_19-3" data-name="Rectangle 19" width="16" height="16" transform="translate(839 305)" fill="#d6d6d6"/>
          <rect id="Rectangle_20-3" data-name="Rectangle 20" width="16" height="16" transform="translate(882 305)" fill="#d6d6d6"/>
        </g>
        <g id="Group_5" data-name="Group 5" transform="translate(2 115)">
          <rect id="Rectangle_5-4" data-name="Rectangle 5" width="16" height="16" transform="translate(240 305)" fill="#d6d6d6"/>
          <rect id="Rectangle_21-4" data-name="Rectangle 21" width="16" height="16" transform="translate(240 305)" fill="#d6d6d6"/>
          <rect id="Rectangle_6-4" data-name="Rectangle 6" width="16" height="16" transform="translate(283 305)" fill="#d6d6d6"/>
          <rect id="Rectangle_7-4" data-name="Rectangle 7" width="16" height="16" transform="translate(323 305)" fill="#d6d6d6"/>
          <rect id="Rectangle_8-4" data-name="Rectangle 8" width="16" height="16" transform="translate(366 305)" fill="#d6d6d6"/>
          <rect id="Rectangle_9-4" data-name="Rectangle 9" width="16" height="16" transform="translate(409 305)" fill="#d6d6d6"/>
          <rect id="Rectangle_10-4" data-name="Rectangle 10" width="16" height="16" transform="translate(452 305)" fill="#d6d6d6"/>
          <rect id="Rectangle_11-4" data-name="Rectangle 11" width="16" height="16" transform="translate(495 305)" fill="#d6d6d6"/>
          <rect id="Rectangle_12-4" data-name="Rectangle 12" width="16" height="16" transform="translate(538 305)" fill="#d6d6d6"/>
          <rect id="Rectangle_13-4" data-name="Rectangle 13" width="16" height="16" transform="translate(581 305)" fill="#d6d6d6"/>
          <rect id="Rectangle_14-4" data-name="Rectangle 14" width="16" height="16" transform="translate(624 305)" fill="#d6d6d6"/>
          <rect id="Rectangle_15-4" data-name="Rectangle 15" width="16" height="16" transform="translate(667 305)" fill="#d6d6d6"/>
          <rect id="Rectangle_16-4" data-name="Rectangle 16" width="16" height="16" transform="translate(710 305)" fill="#d6d6d6"/>
          <rect id="Rectangle_17-4" data-name="Rectangle 17" width="16" height="16" transform="translate(753 305)" fill="#d6d6d6"/>
          <rect id="Rectangle_18-4" data-name="Rectangle 18" width="16" height="16" transform="translate(796 305)" fill="#d6d6d6"/>
          <rect id="Rectangle_19-4" data-name="Rectangle 19" width="16" height="16" transform="translate(839 305)" fill="#d6d6d6"/>
          <rect id="Rectangle_20-4" data-name="Rectangle 20" width="16" height="16" transform="translate(882 305)" fill="#d6d6d6"/>
        </g>
      </g>
      <g id="Group_7" data-name="Group 7" transform="translate(-2 164)">
        <g id="Group_2-2" data-name="Group 2" transform="translate(2 -8)">
          <rect id="Rectangle_5-5" data-name="Rectangle 5" width="16" height="16" transform="translate(240 305)" fill="#d6d6d6"/>
          <rect id="Rectangle_21-5" data-name="Rectangle 21" width="16" height="16" transform="translate(240 305)" fill="#d6d6d6"/>
          <rect id="Rectangle_6-5" data-name="Rectangle 6" width="16" height="16" transform="translate(283 305)" fill="#d6d6d6"/>
          <rect id="Rectangle_7-5" data-name="Rectangle 7" width="16" height="16" transform="translate(323 305)" fill="#d6d6d6"/>
          <rect id="Rectangle_8-5" data-name="Rectangle 8" width="16" height="16" transform="translate(366 305)" fill="#d6d6d6"/>
          <rect id="Rectangle_9-5" data-name="Rectangle 9" width="16" height="16" transform="translate(409 305)" fill="#d6d6d6"/>
          <rect id="Rectangle_10-5" data-name="Rectangle 10" width="16" height="16" transform="translate(452 305)" fill="#d6d6d6"/>
          <rect id="Rectangle_11-5" data-name="Rectangle 11" width="16" height="16" transform="translate(495 305)" fill="#d6d6d6"/>
          <rect id="Rectangle_12-5" data-name="Rectangle 12" width="16" height="16" transform="translate(538 305)" fill="#d6d6d6"/>
          <rect id="Rectangle_13-5" data-name="Rectangle 13" width="16" height="16" transform="translate(581 305)" fill="#d6d6d6"/>
          <rect id="Rectangle_14-5" data-name="Rectangle 14" width="16" height="16" transform="translate(624 305)" fill="#d6d6d6"/>
          <rect id="Rectangle_15-5" data-name="Rectangle 15" width="16" height="16" transform="translate(667 305)" fill="#d6d6d6"/>
          <rect id="Rectangle_16-5" data-name="Rectangle 16" width="16" height="16" transform="translate(710 305)" fill="#d6d6d6"/>
          <rect id="Rectangle_17-5" data-name="Rectangle 17" width="16" height="16" transform="translate(753 305)" fill="#d6d6d6"/>
          <rect id="Rectangle_18-5" data-name="Rectangle 18" width="16" height="16" transform="translate(796 305)" fill="#d6d6d6"/>
          <rect id="Rectangle_19-5" data-name="Rectangle 19" width="16" height="16" transform="translate(839 305)" fill="#d6d6d6"/>
          <rect id="Rectangle_20-5" data-name="Rectangle 20" width="16" height="16" transform="translate(882 305)" fill="#d6d6d6"/>
        </g>
        <g id="Group_3-2" data-name="Group 3" transform="translate(2 33)">
          <rect id="Rectangle_5-6" data-name="Rectangle 5" width="16" height="16" transform="translate(240 305)" fill="#d6d6d6"/>
          <rect id="Rectangle_21-6" data-name="Rectangle 21" width="16" height="16" transform="translate(240 305)" fill="#d6d6d6"/>
          <rect id="Rectangle_6-6" data-name="Rectangle 6" width="16" height="16" transform="translate(283 305)" fill="#d6d6d6"/>
          <rect id="Rectangle_7-6" data-name="Rectangle 7" width="16" height="16" transform="translate(323 305)" fill="#d6d6d6"/>
          <rect id="Rectangle_8-6" data-name="Rectangle 8" width="16" height="16" transform="translate(366 305)" fill="#d6d6d6"/>
          <rect id="Rectangle_9-6" data-name="Rectangle 9" width="16" height="16" transform="translate(409 305)" fill="#d6d6d6"/>
          <rect id="Rectangle_10-6" data-name="Rectangle 10" width="16" height="16" transform="translate(452 305)" fill="#d6d6d6"/>
          <rect id="Rectangle_11-6" data-name="Rectangle 11" width="16" height="16" transform="translate(495 305)" fill="#d6d6d6"/>
          <rect id="Rectangle_12-6" data-name="Rectangle 12" width="16" height="16" transform="translate(538 305)" fill="#d6d6d6"/>
          <rect id="Rectangle_13-6" data-name="Rectangle 13" width="16" height="16" transform="translate(581 305)" fill="#d6d6d6"/>
          <rect id="Rectangle_14-6" data-name="Rectangle 14" width="16" height="16" transform="translate(624 305)" fill="#d6d6d6"/>
          <rect id="Rectangle_15-6" data-name="Rectangle 15" width="16" height="16" transform="translate(667 305)" fill="#d6d6d6"/>
          <rect id="Rectangle_16-6" data-name="Rectangle 16" width="16" height="16" transform="translate(710 305)" fill="#d6d6d6"/>
          <rect id="Rectangle_17-6" data-name="Rectangle 17" width="16" height="16" transform="translate(753 305)" fill="#d6d6d6"/>
          <rect id="Rectangle_18-6" data-name="Rectangle 18" width="16" height="16" transform="translate(796 305)" fill="#d6d6d6"/>
          <rect id="Rectangle_19-6" data-name="Rectangle 19" width="16" height="16" transform="translate(839 305)" fill="#d6d6d6"/>
          <rect id="Rectangle_20-6" data-name="Rectangle 20" width="16" height="16" transform="translate(882 305)" fill="#d6d6d6"/>
        </g>
        <g id="Group_4-2" data-name="Group 4" transform="translate(2 74)">
          <rect id="Rectangle_5-7" data-name="Rectangle 5" width="16" height="16" transform="translate(240 305)" fill="#d6d6d6"/>
          <rect id="Rectangle_21-7" data-name="Rectangle 21" width="16" height="16" transform="translate(240 305)" fill="#d6d6d6"/>
          <rect id="Rectangle_6-7" data-name="Rectangle 6" width="16" height="16" transform="translate(283 305)" fill="#d6d6d6"/>
          <rect id="Rectangle_7-7" data-name="Rectangle 7" width="16" height="16" transform="translate(323 305)" fill="#d6d6d6"/>
          <rect id="Rectangle_8-7" data-name="Rectangle 8" width="16" height="16" transform="translate(366 305)" fill="#d6d6d6"/>
          <rect id="Rectangle_9-7" data-name="Rectangle 9" width="16" height="16" transform="translate(409 305)" fill="#d6d6d6"/>
          <rect id="Rectangle_10-7" data-name="Rectangle 10" width="16" height="16" transform="translate(452 305)" fill="#d6d6d6"/>
          <rect id="Rectangle_11-7" data-name="Rectangle 11" width="16" height="16" transform="translate(495 305)" fill="#d6d6d6"/>
          <rect id="Rectangle_12-7" data-name="Rectangle 12" width="16" height="16" transform="translate(538 305)" fill="#d6d6d6"/>
          <rect id="Rectangle_13-7" data-name="Rectangle 13" width="16" height="16" transform="translate(581 305)" fill="#d6d6d6"/>
          <rect id="Rectangle_14-7" data-name="Rectangle 14" width="16" height="16" transform="translate(624 305)" fill="#d6d6d6"/>
          <rect id="Rectangle_15-7" data-name="Rectangle 15" width="16" height="16" transform="translate(667 305)" fill="#d6d6d6"/>
          <rect id="Rectangle_16-7" data-name="Rectangle 16" width="16" height="16" transform="translate(710 305)" fill="#d6d6d6"/>
          <rect id="Rectangle_17-7" data-name="Rectangle 17" width="16" height="16" transform="translate(753 305)" fill="#d6d6d6"/>
          <rect id="Rectangle_18-7" data-name="Rectangle 18" width="16" height="16" transform="translate(796 305)" fill="#d6d6d6"/>
          <rect id="Rectangle_19-7" data-name="Rectangle 19" width="16" height="16" transform="translate(839 305)" fill="#d6d6d6"/>
          <rect id="Rectangle_20-7" data-name="Rectangle 20" width="16" height="16" transform="translate(882 305)" fill="#d6d6d6"/>
        </g>
        <g id="Group_5-2" data-name="Group 5" transform="translate(2 115)">
          <rect id="Rectangle_5-8" data-name="Rectangle 5" width="16" height="16" transform="translate(240 305)" fill="#d6d6d6"/>
          <rect id="Rectangle_21-8" data-name="Rectangle 21" width="16" height="16" transform="translate(240 305)" fill="#d6d6d6"/>
          <rect id="Rectangle_6-8" data-name="Rectangle 6" width="16" height="16" transform="translate(283 305)" fill="#d6d6d6"/>
          <rect id="Rectangle_7-8" data-name="Rectangle 7" width="16" height="16" transform="translate(323 305)" fill="#d6d6d6"/>
          <rect id="Rectangle_8-8" data-name="Rectangle 8" width="16" height="16" transform="translate(366 305)" fill="#d6d6d6"/>
          <rect id="Rectangle_9-8" data-name="Rectangle 9" width="16" height="16" transform="translate(409 305)" fill="#d6d6d6"/>
          <rect id="Rectangle_10-8" data-name="Rectangle 10" width="16" height="16" transform="translate(452 305)" fill="#d6d6d6"/>
          <rect id="Rectangle_11-8" data-name="Rectangle 11" width="16" height="16" transform="translate(495 305)" fill="#d6d6d6"/>
          <rect id="Rectangle_12-8" data-name="Rectangle 12" width="16" height="16" transform="translate(538 305)" fill="#d6d6d6"/>
          <rect id="Rectangle_13-8" data-name="Rectangle 13" width="16" height="16" transform="translate(581 305)" fill="#d6d6d6"/>
          <rect id="Rectangle_14-8" data-name="Rectangle 14" width="16" height="16" transform="translate(624 305)" fill="#d6d6d6"/>
          <rect id="Rectangle_15-8" data-name="Rectangle 15" width="16" height="16" transform="translate(667 305)" fill="#d6d6d6"/>
          <rect id="Rectangle_16-8" data-name="Rectangle 16" width="16" height="16" transform="translate(710 305)" fill="#d6d6d6"/>
          <rect id="Rectangle_17-8" data-name="Rectangle 17" width="16" height="16" transform="translate(753 305)" fill="#d6d6d6"/>
          <rect id="Rectangle_18-8" data-name="Rectangle 18" width="16" height="16" transform="translate(796 305)" fill="#d6d6d6"/>
          <rect id="Rectangle_19-8" data-name="Rectangle 19" width="16" height="16" transform="translate(839 305)" fill="#d6d6d6"/>
          <rect id="Rectangle_20-8" data-name="Rectangle 20" width="16" height="16" transform="translate(882 305)" fill="#d6d6d6"/>
        </g>
      </g>
      <g id="Group_8" data-name="Group 8" transform="translate(-2 328)">
        <g id="Group_2-3" data-name="Group 2" transform="translate(2 -8)">
          <rect id="Rectangle_5-9" data-name="Rectangle 5" width="16" height="16" transform="translate(240 305)" fill="#d6d6d6"/>
          <rect id="Rectangle_21-9" data-name="Rectangle 21" width="16" height="16" transform="translate(240 305)" fill="#d6d6d6"/>
          <rect id="Rectangle_6-9" data-name="Rectangle 6" width="16" height="16" transform="translate(283 305)" fill="#d6d6d6"/>
          <rect id="Rectangle_7-9" data-name="Rectangle 7" width="16" height="16" transform="translate(323 305)" fill="#d6d6d6"/>
          <rect id="Rectangle_8-9" data-name="Rectangle 8" width="16" height="16" transform="translate(366 305)" fill="#d6d6d6"/>
          <rect id="Rectangle_9-9" data-name="Rectangle 9" width="16" height="16" transform="translate(409 305)" fill="#d6d6d6"/>
          <rect id="Rectangle_10-9" data-name="Rectangle 10" width="16" height="16" transform="translate(452 305)" fill="#d6d6d6"/>
          <rect id="Rectangle_11-9" data-name="Rectangle 11" width="16" height="16" transform="translate(495 305)" fill="#d6d6d6"/>
          <rect id="Rectangle_12-9" data-name="Rectangle 12" width="16" height="16" transform="translate(538 305)" fill="#d6d6d6"/>
          <rect id="Rectangle_13-9" data-name="Rectangle 13" width="16" height="16" transform="translate(581 305)" fill="#d6d6d6"/>
          <rect id="Rectangle_14-9" data-name="Rectangle 14" width="16" height="16" transform="translate(624 305)" fill="#d6d6d6"/>
          <rect id="Rectangle_15-9" data-name="Rectangle 15" width="16" height="16" transform="translate(667 305)" fill="#d6d6d6"/>
          <rect id="Rectangle_16-9" data-name="Rectangle 16" width="16" height="16" transform="translate(710 305)" fill="#d6d6d6"/>
          <rect id="Rectangle_17-9" data-name="Rectangle 17" width="16" height="16" transform="translate(753 305)" fill="#d6d6d6"/>
          <rect id="Rectangle_18-9" data-name="Rectangle 18" width="16" height="16" transform="translate(796 305)" fill="#d6d6d6"/>
          <rect id="Rectangle_19-9" data-name="Rectangle 19" width="16" height="16" transform="translate(839 305)" fill="#d6d6d6"/>
          <rect id="Rectangle_20-9" data-name="Rectangle 20" width="16" height="16" transform="translate(882 305)" fill="#d6d6d6"/>
        </g>
        <g id="Group_3-3" data-name="Group 3" transform="translate(2 33)">
          <rect id="Rectangle_5-10" data-name="Rectangle 5" width="16" height="16" transform="translate(240 305)" fill="#d6d6d6"/>
          <rect id="Rectangle_21-10" data-name="Rectangle 21" width="16" height="16" transform="translate(240 305)" fill="#d6d6d6"/>
          <rect id="Rectangle_6-10" data-name="Rectangle 6" width="16" height="16" transform="translate(283 305)" fill="#d6d6d6"/>
          <rect id="Rectangle_7-10" data-name="Rectangle 7" width="16" height="16" transform="translate(323 305)" fill="#d6d6d6"/>
          <rect id="Rectangle_8-10" data-name="Rectangle 8" width="16" height="16" transform="translate(366 305)" fill="#d6d6d6"/>
          <rect id="Rectangle_9-10" data-name="Rectangle 9" width="16" height="16" transform="translate(409 305)" fill="#d6d6d6"/>
          <rect id="Rectangle_10-10" data-name="Rectangle 10" width="16" height="16" transform="translate(452 305)" fill="#d6d6d6"/>
          <rect id="Rectangle_11-10" data-name="Rectangle 11" width="16" height="16" transform="translate(495 305)" fill="#d6d6d6"/>
          <rect id="Rectangle_12-10" data-name="Rectangle 12" width="16" height="16" transform="translate(538 305)" fill="#d6d6d6"/>
          <rect id="Rectangle_13-10" data-name="Rectangle 13" width="16" height="16" transform="translate(581 305)" fill="#d6d6d6"/>
          <rect id="Rectangle_14-10" data-name="Rectangle 14" width="16" height="16" transform="translate(624 305)" fill="#d6d6d6"/>
          <rect id="Rectangle_15-10" data-name="Rectangle 15" width="16" height="16" transform="translate(667 305)" fill="#d6d6d6"/>
          <rect id="Rectangle_16-10" data-name="Rectangle 16" width="16" height="16" transform="translate(710 305)" fill="#d6d6d6"/>
          <rect id="Rectangle_17-10" data-name="Rectangle 17" width="16" height="16" transform="translate(753 305)" fill="#d6d6d6"/>
          <rect id="Rectangle_18-10" data-name="Rectangle 18" width="16" height="16" transform="translate(796 305)" fill="#d6d6d6"/>
          <rect id="Rectangle_19-10" data-name="Rectangle 19" width="16" height="16" transform="translate(839 305)" fill="#d6d6d6"/>
          <rect id="Rectangle_20-10" data-name="Rectangle 20" width="16" height="16" transform="translate(882 305)" fill="#d6d6d6"/>
        </g>
        <g id="Group_4-3" data-name="Group 4" transform="translate(2 74)">
          <rect id="Rectangle_5-11" data-name="Rectangle 5" width="16" height="16" transform="translate(240 305)" fill="#d6d6d6"/>
          <rect id="Rectangle_21-11" data-name="Rectangle 21" width="16" height="16" transform="translate(240 305)" fill="#d6d6d6"/>
          <rect id="Rectangle_6-11" data-name="Rectangle 6" width="16" height="16" transform="translate(283 305)" fill="#d6d6d6"/>
          <rect id="Rectangle_7-11" data-name="Rectangle 7" width="16" height="16" transform="translate(323 305)" fill="#d6d6d6"/>
          <rect id="Rectangle_8-11" data-name="Rectangle 8" width="16" height="16" transform="translate(366 305)" fill="#d6d6d6"/>
          <rect id="Rectangle_9-11" data-name="Rectangle 9" width="16" height="16" transform="translate(409 305)" fill="#d6d6d6"/>
          <rect id="Rectangle_10-11" data-name="Rectangle 10" width="16" height="16" transform="translate(452 305)" fill="#d6d6d6"/>
          <rect id="Rectangle_11-11" data-name="Rectangle 11" width="16" height="16" transform="translate(495 305)" fill="#d6d6d6"/>
          <rect id="Rectangle_12-11" data-name="Rectangle 12" width="16" height="16" transform="translate(538 305)" fill="#d6d6d6"/>
          <rect id="Rectangle_13-11" data-name="Rectangle 13" width="16" height="16" transform="translate(581 305)" fill="#d6d6d6"/>
          <rect id="Rectangle_14-11" data-name="Rectangle 14" width="16" height="16" transform="translate(624 305)" fill="#d6d6d6"/>
          <rect id="Rectangle_15-11" data-name="Rectangle 15" width="16" height="16" transform="translate(667 305)" fill="#d6d6d6"/>
          <rect id="Rectangle_16-11" data-name="Rectangle 16" width="16" height="16" transform="translate(710 305)" fill="#d6d6d6"/>
          <rect id="Rectangle_17-11" data-name="Rectangle 17" width="16" height="16" transform="translate(753 305)" fill="#d6d6d6"/>
          <rect id="Rectangle_18-11" data-name="Rectangle 18" width="16" height="16" transform="translate(796 305)" fill="#d6d6d6"/>
          <rect id="Rectangle_19-11" data-name="Rectangle 19" width="16" height="16" transform="translate(839 305)" fill="#d6d6d6"/>
          <rect id="Rectangle_20-11" data-name="Rectangle 20" width="16" height="16" transform="translate(882 305)" fill="#d6d6d6"/>
        </g>
        <g id="Group_5-3" data-name="Group 5" transform="translate(2 115)">
          <rect id="Rectangle_5-12" data-name="Rectangle 5" width="16" height="16" transform="translate(240 305)" fill="#d6d6d6"/>
          <rect id="Rectangle_21-12" data-name="Rectangle 21" width="16" height="16" transform="translate(240 305)" fill="#d6d6d6"/>
          <rect id="Rectangle_6-12" data-name="Rectangle 6" width="16" height="16" transform="translate(283 305)" fill="#d6d6d6"/>
          <rect id="Rectangle_7-12" data-name="Rectangle 7" width="16" height="16" transform="translate(323 305)" fill="#d6d6d6"/>
          <rect id="Rectangle_8-12" data-name="Rectangle 8" width="16" height="16" transform="translate(366 305)" fill="#d6d6d6"/>
          <rect id="Rectangle_9-12" data-name="Rectangle 9" width="16" height="16" transform="translate(409 305)" fill="#d6d6d6"/>
          <rect id="Rectangle_10-12" data-name="Rectangle 10" width="16" height="16" transform="translate(452 305)" fill="#d6d6d6"/>
          <rect id="Rectangle_11-12" data-name="Rectangle 11" width="16" height="16" transform="translate(495 305)" fill="#d6d6d6"/>
          <rect id="Rectangle_12-12" data-name="Rectangle 12" width="16" height="16" transform="translate(538 305)" fill="#d6d6d6"/>
          <rect id="Rectangle_13-12" data-name="Rectangle 13" width="16" height="16" transform="translate(581 305)" fill="#d6d6d6"/>
          <rect id="Rectangle_14-12" data-name="Rectangle 14" width="16" height="16" transform="translate(624 305)" fill="#d6d6d6"/>
          <rect id="Rectangle_15-12" data-name="Rectangle 15" width="16" height="16" transform="translate(667 305)" fill="#d6d6d6"/>
          <rect id="Rectangle_16-12" data-name="Rectangle 16" width="16" height="16" transform="translate(710 305)" fill="#d6d6d6"/>
          <rect id="Rectangle_17-12" data-name="Rectangle 17" width="16" height="16" transform="translate(753 305)" fill="#d6d6d6"/>
          <rect id="Rectangle_18-12" data-name="Rectangle 18" width="16" height="16" transform="translate(796 305)" fill="#d6d6d6"/>
          <rect id="Rectangle_19-12" data-name="Rectangle 19" width="16" height="16" transform="translate(839 305)" fill="#d6d6d6"/>
          <rect id="Rectangle_20-12" data-name="Rectangle 20" width="16" height="16" transform="translate(882 305)" fill="#d6d6d6"/>
        </g>
      </g>
      <g id="Group_9" data-name="Group 9" transform="translate(-2 492)">
        <g id="Group_2-4" data-name="Group 2" transform="translate(2 -8)">
          <rect id="Rectangle_5-13" data-name="Rectangle 5" width="16" height="16" transform="translate(240 305)" fill="#d6d6d6"/>
          <rect id="Rectangle_21-13" data-name="Rectangle 21" width="16" height="16" transform="translate(240 305)" fill="#d6d6d6"/>
          <rect id="Rectangle_6-13" data-name="Rectangle 6" width="16" height="16" transform="translate(283 305)" fill="#d6d6d6"/>
          <rect id="Rectangle_7-13" data-name="Rectangle 7" width="16" height="16" transform="translate(323 305)" fill="#d6d6d6"/>
          <rect id="Rectangle_8-13" data-name="Rectangle 8" width="16" height="16" transform="translate(366 305)" fill="#d6d6d6"/>
          <rect id="Rectangle_9-13" data-name="Rectangle 9" width="16" height="16" transform="translate(409 305)" fill="#d6d6d6"/>
          <rect id="Rectangle_10-13" data-name="Rectangle 10" width="16" height="16" transform="translate(452 305)" fill="#d6d6d6"/>
          <rect id="Rectangle_11-13" data-name="Rectangle 11" width="16" height="16" transform="translate(495 305)" fill="#d6d6d6"/>
          <rect id="Rectangle_12-13" data-name="Rectangle 12" width="16" height="16" transform="translate(538 305)" fill="#d6d6d6"/>
          <rect id="Rectangle_13-13" data-name="Rectangle 13" width="16" height="16" transform="translate(581 305)" fill="#d6d6d6"/>
          <rect id="Rectangle_14-13" data-name="Rectangle 14" width="16" height="16" transform="translate(624 305)" fill="#d6d6d6"/>
          <rect id="Rectangle_15-13" data-name="Rectangle 15" width="16" height="16" transform="translate(667 305)" fill="#d6d6d6"/>
          <rect id="Rectangle_16-13" data-name="Rectangle 16" width="16" height="16" transform="translate(710 305)" fill="#d6d6d6"/>
          <rect id="Rectangle_17-13" data-name="Rectangle 17" width="16" height="16" transform="translate(753 305)" fill="#d6d6d6"/>
          <rect id="Rectangle_18-13" data-name="Rectangle 18" width="16" height="16" transform="translate(796 305)" fill="#d6d6d6"/>
          <rect id="Rectangle_19-13" data-name="Rectangle 19" width="16" height="16" transform="translate(839 305)" fill="#d6d6d6"/>
          <rect id="Rectangle_20-13" data-name="Rectangle 20" width="16" height="16" transform="translate(882 305)" fill="#d6d6d6"/>
        </g>
        <g id="Group_3-4" data-name="Group 3" transform="translate(2 33)">
          <rect id="Rectangle_5-14" data-name="Rectangle 5" width="16" height="16" transform="translate(240 305)" fill="#d6d6d6"/>
          <rect id="Rectangle_21-14" data-name="Rectangle 21" width="16" height="16" transform="translate(240 305)" fill="#d6d6d6"/>
          <rect id="Rectangle_6-14" data-name="Rectangle 6" width="16" height="16" transform="translate(283 305)" fill="#d6d6d6"/>
          <rect id="Rectangle_7-14" data-name="Rectangle 7" width="16" height="16" transform="translate(323 305)" fill="#d6d6d6"/>
          <rect id="Rectangle_8-14" data-name="Rectangle 8" width="16" height="16" transform="translate(366 305)" fill="#d6d6d6"/>
          <rect id="Rectangle_9-14" data-name="Rectangle 9" width="16" height="16" transform="translate(409 305)" fill="#d6d6d6"/>
          <rect id="Rectangle_10-14" data-name="Rectangle 10" width="16" height="16" transform="translate(452 305)" fill="#d6d6d6"/>
          <rect id="Rectangle_11-14" data-name="Rectangle 11" width="16" height="16" transform="translate(495 305)" fill="#d6d6d6"/>
          <rect id="Rectangle_12-14" data-name="Rectangle 12" width="16" height="16" transform="translate(538 305)" fill="#d6d6d6"/>
          <rect id="Rectangle_13-14" data-name="Rectangle 13" width="16" height="16" transform="translate(581 305)" fill="#d6d6d6"/>
          <rect id="Rectangle_14-14" data-name="Rectangle 14" width="16" height="16" transform="translate(624 305)" fill="#d6d6d6"/>
          <rect id="Rectangle_15-14" data-name="Rectangle 15" width="16" height="16" transform="translate(667 305)" fill="#d6d6d6"/>
          <rect id="Rectangle_16-14" data-name="Rectangle 16" width="16" height="16" transform="translate(710 305)" fill="#d6d6d6"/>
          <rect id="Rectangle_17-14" data-name="Rectangle 17" width="16" height="16" transform="translate(753 305)" fill="#d6d6d6"/>
          <rect id="Rectangle_18-14" data-name="Rectangle 18" width="16" height="16" transform="translate(796 305)" fill="#d6d6d6"/>
          <rect id="Rectangle_19-14" data-name="Rectangle 19" width="16" height="16" transform="translate(839 305)" fill="#d6d6d6"/>
          <rect id="Rectangle_20-14" data-name="Rectangle 20" width="16" height="16" transform="translate(882 305)" fill="#d6d6d6"/>
        </g>
        <g id="Group_4-4" data-name="Group 4" transform="translate(2 74)">
          <rect id="Rectangle_5-15" data-name="Rectangle 5" width="16" height="16" transform="translate(240 305)" fill="#d6d6d6"/>
          <rect id="Rectangle_21-15" data-name="Rectangle 21" width="16" height="16" transform="translate(240 305)" fill="#d6d6d6"/>
          <rect id="Rectangle_6-15" data-name="Rectangle 6" width="16" height="16" transform="translate(283 305)" fill="#d6d6d6"/>
          <rect id="Rectangle_7-15" data-name="Rectangle 7" width="16" height="16" transform="translate(323 305)" fill="#d6d6d6"/>
          <rect id="Rectangle_8-15" data-name="Rectangle 8" width="16" height="16" transform="translate(366 305)" fill="#d6d6d6"/>
          <rect id="Rectangle_9-15" data-name="Rectangle 9" width="16" height="16" transform="translate(409 305)" fill="#d6d6d6"/>
          <rect id="Rectangle_10-15" data-name="Rectangle 10" width="16" height="16" transform="translate(452 305)" fill="#d6d6d6"/>
          <rect id="Rectangle_11-15" data-name="Rectangle 11" width="16" height="16" transform="translate(495 305)" fill="#d6d6d6"/>
          <rect id="Rectangle_12-15" data-name="Rectangle 12" width="16" height="16" transform="translate(538 305)" fill="#d6d6d6"/>
          <rect id="Rectangle_13-15" data-name="Rectangle 13" width="16" height="16" transform="translate(581 305)" fill="#d6d6d6"/>
          <rect id="Rectangle_14-15" data-name="Rectangle 14" width="16" height="16" transform="translate(624 305)" fill="#d6d6d6"/>
          <rect id="Rectangle_15-15" data-name="Rectangle 15" width="16" height="16" transform="translate(667 305)" fill="#d6d6d6"/>
          <rect id="Rectangle_16-15" data-name="Rectangle 16" width="16" height="16" transform="translate(710 305)" fill="#d6d6d6"/>
          <rect id="Rectangle_17-15" data-name="Rectangle 17" width="16" height="16" transform="translate(753 305)" fill="#d6d6d6"/>
          <rect id="Rectangle_18-15" data-name="Rectangle 18" width="16" height="16" transform="translate(796 305)" fill="#d6d6d6"/>
          <rect id="Rectangle_19-15" data-name="Rectangle 19" width="16" height="16" transform="translate(839 305)" fill="#d6d6d6"/>
          <rect id="Rectangle_20-15" data-name="Rectangle 20" width="16" height="16" transform="translate(882 305)" fill="#d6d6d6"/>
        </g>
        <g id="Group_5-4" data-name="Group 5" transform="translate(2 115)">
          <rect id="Rectangle_5-16" data-name="Rectangle 5" width="16" height="16" transform="translate(240 305)" fill="#d6d6d6"/>
          <rect id="Rectangle_21-16" data-name="Rectangle 21" width="16" height="16" transform="translate(240 305)" fill="#d6d6d6"/>
          <rect id="Rectangle_6-16" data-name="Rectangle 6" width="16" height="16" transform="translate(283 305)" fill="#d6d6d6"/>
          <rect id="Rectangle_7-16" data-name="Rectangle 7" width="16" height="16" transform="translate(323 305)" fill="#d6d6d6"/>
          <rect id="Rectangle_8-16" data-name="Rectangle 8" width="16" height="16" transform="translate(366 305)" fill="#d6d6d6"/>
          <rect id="Rectangle_9-16" data-name="Rectangle 9" width="16" height="16" transform="translate(409 305)" fill="#d6d6d6"/>
          <rect id="Rectangle_10-16" data-name="Rectangle 10" width="16" height="16" transform="translate(452 305)" fill="#d6d6d6"/>
          <rect id="Rectangle_11-16" data-name="Rectangle 11" width="16" height="16" transform="translate(495 305)" fill="#d6d6d6"/>
          <rect id="Rectangle_12-16" data-name="Rectangle 12" width="16" height="16" transform="translate(538 305)" fill="#d6d6d6"/>
          <rect id="Rectangle_13-16" data-name="Rectangle 13" width="16" height="16" transform="translate(581 305)" fill="#d6d6d6"/>
          <rect id="Rectangle_14-16" data-name="Rectangle 14" width="16" height="16" transform="translate(624 305)" fill="#d6d6d6"/>
          <rect id="Rectangle_15-16" data-name="Rectangle 15" width="16" height="16" transform="translate(667 305)" fill="#d6d6d6"/>
          <rect id="Rectangle_16-16" data-name="Rectangle 16" width="16" height="16" transform="translate(710 305)" fill="#d6d6d6"/>
          <rect id="Rectangle_17-16" data-name="Rectangle 17" width="16" height="16" transform="translate(753 305)" fill="#d6d6d6"/>
          <rect id="Rectangle_18-16" data-name="Rectangle 18" width="16" height="16" transform="translate(796 305)" fill="#d6d6d6"/>
          <rect id="Rectangle_19-16" data-name="Rectangle 19" width="16" height="16" transform="translate(839 305)" fill="#d6d6d6"/>
          <rect id="Rectangle_20-16" data-name="Rectangle 20" width="16" height="16" transform="translate(882 305)" fill="#d6d6d6"/>
        </g>
      </g>
    </g>
  </g>
</svg>
